<svg width="12" height="12" viewBox="0 0 12 12" fill="none" xmlns="http://www.w3.org/2000/svg">
<path d="M6.18528 11.9998C6.11133 12.0002 6.03802 11.9876 5.96956 11.9627C5.9011 11.9379 5.83883 11.9012 5.78633 11.8549C5.73366 11.8084 5.69186 11.7531 5.66333 11.6922C5.6348 11.6313 5.62012 11.5659 5.62012 11.4999C5.62012 11.4339 5.6348 11.3686 5.66333 11.3077C5.69186 11.2468 5.73366 11.1915 5.78633 11.145L10.3771 7.06075C10.6928 6.77955 10.8701 6.39838 10.8701 6.00095C10.8701 5.60352 10.6928 5.22234 10.3771 4.94114L5.78633 0.856889C5.73394 0.810278 5.69238 0.754943 5.66402 0.694043C5.63567 0.633143 5.62108 0.567871 5.62108 0.501954C5.62108 0.368827 5.68052 0.241154 5.78633 0.147019C5.89214 0.0528843 6.03564 0 6.18528 0C6.33491 0 6.47842 0.0528843 6.58423 0.147019L11.175 4.23127C11.4366 4.46346 11.6442 4.73928 11.7858 5.04295C11.9275 5.34662 12.0004 5.67217 12.0004 6.00095C12.0004 6.32972 11.9275 6.65527 11.7858 6.95894C11.6442 7.26261 11.4366 7.53844 11.175 7.77062L6.58423 11.8549C6.53172 11.9012 6.46946 11.9379 6.401 11.9627C6.33254 11.9876 6.25923 12.0002 6.18528 11.9998Z" fill="#FF6900"/>
<path d="M0.565161 11.9998C0.491211 12.0002 0.417904 11.9876 0.349443 11.9627C0.280982 11.9379 0.218714 11.9012 0.16621 11.8549C0.113544 11.8084 0.0717413 11.7531 0.0432142 11.6922C0.0146872 11.6313 0 11.5659 0 11.4999C0 11.4339 0.0146872 11.3686 0.0432142 11.3077C0.0717413 11.2468 0.113544 11.1915 0.16621 11.145L5.55486 6.35588C5.60752 6.30941 5.64933 6.25412 5.67785 6.1932C5.70638 6.13228 5.72107 6.06694 5.72107 6.00095C5.72107 5.93495 5.70638 5.86961 5.67785 5.80869C5.64933 5.74778 5.60752 5.69248 5.55486 5.64601L0.16621 0.856889C0.0604015 0.762754 0.000958977 0.63508 0.000958977 0.501954C0.000958977 0.368827 0.0604015 0.241154 0.16621 0.147019C0.272018 0.0528843 0.415525 0 0.565161 0C0.714797 0 0.858304 0.0528843 0.964112 0.147019L6.34714 4.94114C6.66282 5.22234 6.84013 5.60352 6.84013 6.00095C6.84013 6.39838 6.66282 6.77955 6.34714 7.06075L0.964112 11.8549C0.911608 11.9012 0.84934 11.9379 0.780879 11.9627C0.712418 11.9876 0.639111 12.0002 0.565161 11.9998Z" fill="#FF6900"/>
</svg>
