<svg width="72" height="32" viewBox="0 0 72 32" fill="none" xmlns="http://www.w3.org/2000/svg">
<rect width="72" height="32" fill="#F5F5F5"/>
<path d="M20.3555 22.0068V24H11.1133V22.0068H20.3555ZM11.5957 5.51562V24H9.14551V5.51562H11.5957ZM22.1836 17.2842V16.9922C22.1836 16.002 22.3275 15.0837 22.6152 14.2373C22.903 13.3825 23.3177 12.6419 23.8594 12.0156C24.401 11.3809 25.057 10.89 25.8271 10.543C26.5973 10.1875 27.4606 10.0098 28.417 10.0098C29.3818 10.0098 30.2493 10.1875 31.0195 10.543C31.7982 10.89 32.4583 11.3809 33 12.0156C33.5501 12.6419 33.9691 13.3825 34.2568 14.2373C34.5446 15.0837 34.6885 16.002 34.6885 16.9922V17.2842C34.6885 18.2744 34.5446 19.1927 34.2568 20.0391C33.9691 20.8854 33.5501 21.626 33 22.2607C32.4583 22.887 31.8024 23.3779 31.0322 23.7334C30.2705 24.0804 29.4072 24.2539 28.4424 24.2539C27.4775 24.2539 26.61 24.0804 25.8398 23.7334C25.0697 23.3779 24.4095 22.887 23.8594 22.2607C23.3177 21.626 22.903 20.8854 22.6152 20.0391C22.3275 19.1927 22.1836 18.2744 22.1836 17.2842ZM24.5322 16.9922V17.2842C24.5322 17.9697 24.6126 18.6172 24.7734 19.2266C24.9342 19.8275 25.1755 20.3607 25.4971 20.8262C25.8271 21.2917 26.2376 21.6598 26.7285 21.9307C27.2194 22.193 27.7907 22.3242 28.4424 22.3242C29.0856 22.3242 29.6484 22.193 30.1309 21.9307C30.6217 21.6598 31.028 21.2917 31.3496 20.8262C31.6712 20.3607 31.9124 19.8275 32.0732 19.2266C32.2425 18.6172 32.3271 17.9697 32.3271 17.2842V16.9922C32.3271 16.3151 32.2425 15.6761 32.0732 15.0752C31.9124 14.4658 31.667 13.9284 31.3369 13.4629C31.0153 12.9889 30.609 12.6165 30.1182 12.3457C29.6357 12.0749 29.0687 11.9395 28.417 11.9395C27.7738 11.9395 27.2067 12.0749 26.7158 12.3457C26.2334 12.6165 25.8271 12.9889 25.4971 13.4629C25.1755 13.9284 24.9342 14.4658 24.7734 15.0752C24.6126 15.6761 24.5322 16.3151 24.5322 16.9922ZM46.5332 10.2637H48.666V23.708C48.666 24.9183 48.4206 25.9508 47.9297 26.8057C47.4388 27.6605 46.7533 28.3079 45.873 28.748C45.0013 29.1966 43.9941 29.4209 42.8516 29.4209C42.3776 29.4209 41.819 29.3447 41.1758 29.1924C40.541 29.0485 39.9147 28.7988 39.2969 28.4434C38.6875 28.0964 38.1755 27.6266 37.7607 27.0342L38.9922 25.6377C39.5677 26.3317 40.1686 26.8141 40.7949 27.085C41.4297 27.3558 42.056 27.4912 42.6738 27.4912C43.4186 27.4912 44.0618 27.3516 44.6035 27.0723C45.1452 26.793 45.5641 26.3783 45.8604 25.8281C46.165 25.2865 46.3174 24.6178 46.3174 23.8223V13.2852L46.5332 10.2637ZM37.0752 17.2842V17.0176C37.0752 15.9681 37.1979 15.016 37.4434 14.1611C37.6973 13.2979 38.057 12.5573 38.5225 11.9395C38.9964 11.3216 39.5677 10.8477 40.2363 10.5176C40.9049 10.179 41.6582 10.0098 42.4961 10.0098C43.3594 10.0098 44.1126 10.1621 44.7559 10.4668C45.4076 10.763 45.9577 11.1989 46.4062 11.7744C46.8633 12.3415 47.223 13.027 47.4854 13.8311C47.7477 14.6351 47.9297 15.5449 48.0312 16.5605V17.7285C47.9382 18.7357 47.7562 19.6413 47.4854 20.4453C47.223 21.2493 46.8633 21.9349 46.4062 22.502C45.9577 23.069 45.4076 23.5049 44.7559 23.8096C44.1042 24.1058 43.3424 24.2539 42.4707 24.2539C41.6497 24.2539 40.9049 24.0804 40.2363 23.7334C39.5762 23.3864 39.0091 22.8997 38.5352 22.2734C38.0612 21.6471 37.6973 20.9108 37.4434 20.0645C37.1979 19.2096 37.0752 18.2829 37.0752 17.2842ZM39.4238 17.0176V17.2842C39.4238 17.9697 39.4915 18.613 39.627 19.2139C39.7708 19.8148 39.9867 20.3438 40.2744 20.8008C40.5706 21.2578 40.9473 21.6175 41.4043 21.8799C41.8613 22.1338 42.4072 22.2607 43.042 22.2607C43.8206 22.2607 44.4639 22.0957 44.9717 21.7656C45.4795 21.4355 45.8815 20.9997 46.1777 20.458C46.4824 19.9163 46.7194 19.3281 46.8887 18.6934V15.6338C46.7956 15.1683 46.6517 14.7197 46.457 14.2881C46.2708 13.848 46.0254 13.4587 45.7207 13.1201C45.4245 12.7731 45.0563 12.498 44.6162 12.2949C44.1761 12.0918 43.6598 11.9902 43.0674 11.9902C42.4242 11.9902 41.8698 12.1257 41.4043 12.3965C40.9473 12.6589 40.5706 13.0228 40.2744 13.4883C39.9867 13.9453 39.7708 14.4785 39.627 15.0879C39.4915 15.6888 39.4238 16.332 39.4238 17.0176ZM51.6113 17.2842V16.9922C51.6113 16.002 51.7552 15.0837 52.043 14.2373C52.3307 13.3825 52.7454 12.6419 53.2871 12.0156C53.8288 11.3809 54.4847 10.89 55.2549 10.543C56.0251 10.1875 56.8883 10.0098 57.8447 10.0098C58.8096 10.0098 59.6771 10.1875 60.4473 10.543C61.2259 10.89 61.8861 11.3809 62.4277 12.0156C62.9779 12.6419 63.3968 13.3825 63.6846 14.2373C63.9723 15.0837 64.1162 16.002 64.1162 16.9922V17.2842C64.1162 18.2744 63.9723 19.1927 63.6846 20.0391C63.3968 20.8854 62.9779 21.626 62.4277 22.2607C61.8861 22.887 61.2301 23.3779 60.46 23.7334C59.6982 24.0804 58.835 24.2539 57.8701 24.2539C56.9053 24.2539 56.0378 24.0804 55.2676 23.7334C54.4974 23.3779 53.8372 22.887 53.2871 22.2607C52.7454 21.626 52.3307 20.8854 52.043 20.0391C51.7552 19.1927 51.6113 18.2744 51.6113 17.2842ZM53.96 16.9922V17.2842C53.96 17.9697 54.0404 18.6172 54.2012 19.2266C54.362 19.8275 54.6032 20.3607 54.9248 20.8262C55.2549 21.2917 55.6654 21.6598 56.1562 21.9307C56.6471 22.193 57.2184 22.3242 57.8701 22.3242C58.5133 22.3242 59.0762 22.193 59.5586 21.9307C60.0495 21.6598 60.4557 21.2917 60.7773 20.8262C61.099 20.3607 61.3402 19.8275 61.501 19.2266C61.6702 18.6172 61.7549 17.9697 61.7549 17.2842V16.9922C61.7549 16.3151 61.6702 15.6761 61.501 15.0752C61.3402 14.4658 61.0947 13.9284 60.7646 13.4629C60.443 12.9889 60.0368 12.6165 59.5459 12.3457C59.0635 12.0749 58.4964 11.9395 57.8447 11.9395C57.2015 11.9395 56.6344 12.0749 56.1436 12.3457C55.6611 12.6165 55.2549 12.9889 54.9248 13.4629C54.6032 13.9284 54.362 14.4658 54.2012 15.0752C54.0404 15.6761 53.96 16.3151 53.96 16.9922Z" fill="#0EA5E9"/>
</svg>
