<svg width="26" height="32" viewBox="0 0 26 32" fill="none" xmlns="http://www.w3.org/2000/svg">
<path d="M22.5736 4.27919C21.2755 2.9263 19.7174 1.84982 17.9927 1.11445C16.2681 0.379077 14.4125 0 12.5376 0C10.6627 0 8.8072 0.379077 7.08254 1.11445C5.35789 1.84982 3.79971 2.9263 2.50168 4.27919C0.0585603 7.47281 -0.69194 12.2632 0.681316 17.1814C2.08651 22.4988 5.83901 26.3471 8.85698 29.4289L10.326 31.0257C10.6114 31.3285 10.9531 31.5726 11.332 31.7443C11.7116 31.9129 12.1223 32 12.5376 32C12.9529 32 13.3637 31.9129 13.7432 31.7443C14.1151 31.5756 14.4512 31.3371 14.7332 31.0417L16.2183 29.4449C19.2362 26.3631 22.9887 22.5148 24.3939 17.1974C25.6874 12.2632 25.0167 7.47281 22.5736 4.27919ZM12.5296 17.4529C11.3376 17.4531 10.177 17.0701 9.21932 16.3602C8.26164 15.6504 7.55761 14.6513 7.21122 13.5107C6.86482 12.3701 6.89441 11.1483 7.29561 10.0257C7.69682 8.9032 8.44837 7.93944 9.43929 7.27678C10.4302 6.61411 11.608 6.28766 12.7986 6.34565C13.9893 6.40363 15.1298 6.84297 16.0516 7.59879C16.9734 8.35461 17.6278 9.38684 17.918 10.543C18.2082 11.6993 18.119 12.9181 17.6634 14.0197C17.2425 15.0339 16.5299 15.9001 15.6158 16.5085C14.7018 17.1169 13.6276 17.4401 12.5296 17.4369V17.4529Z" fill="black"/>
</svg>
