<svg width="19" height="32" viewBox="0 0 19 32" fill="none" xmlns="http://www.w3.org/2000/svg">
<path d="M15.2727 0H3.63636C2.67194 0 1.74702 0.383116 1.06507 1.06507C0.383116 1.74702 0 2.67194 0 3.63636V28.3636C0 29.3281 0.383116 30.253 1.06507 30.9349C1.74702 31.6169 2.67194 32 3.63636 32H15.2727C16.2372 32 17.1621 31.6169 17.844 30.9349C18.526 30.253 18.9091 29.3281 18.9091 28.3636V3.63636C18.9091 2.67194 18.526 1.74702 17.844 1.06507C17.1621 0.383116 16.2372 0 15.2727 0ZM9.45455 30.5455C8.24727 30.5455 7.27273 29.5709 7.27273 28.3636C7.27273 27.1564 8.24727 26.1818 9.45455 26.1818C10.6618 26.1818 11.6364 27.1564 11.6364 28.3636C11.6364 29.5709 10.6618 30.5455 9.45455 30.5455ZM16 24.7273H2.90909V4.36364H16V24.7273Z" fill="#0ea5e9"/>
</svg>
