<svg width="290" height="572" viewBox="0 0 290 572" fill="none" xmlns="http://www.w3.org/2000/svg">
<g clip-path="url(#clip0_750_2)">
<path d="M0 24L0 548C0 561.255 10.7452 572 24 572H266C279.255 572 290 561.255 290 548L290 24C290 10.7452 279.255 0 266 0H24C10.7452 0 0 10.7452 0 24Z" fill="#EFF2F6"/>
<path d="M193 323.333V248.667C193 242.8 188.2 238 182.333 238H107.667C101.8 238 97 242.8 97 248.667V323.333C97 329.2 101.8 334 107.667 334H182.333C188.2 334 193 329.2 193 323.333ZM126.333 294L139.667 310.053L158.333 286L182.333 318H107.667L126.333 294Z" fill="#9CC9C9"/>
</g>
<defs>
<clipPath id="clip0_750_2">
<rect width="572" height="290" fill="white" transform="matrix(0 -1 1 0 0 572)"/>
</clipPath>
</defs>
</svg>
